<svg xmlns="http://www.w3.org/2000/svg" viewBox="0 0 536.53 190.66"><defs><style>.cls-1,.cls-2,.cls-3{fill:#1d1d1b;}.cls-1,.cls-2{stroke:#1d1d1b;stroke-miterlimit:10;}.cls-1{stroke-width:0.63px;}.cls-2{stroke-width:0.83px;}.cls-3{font-size:150px;}.cls-3,.cls-5{font-family:FranklinGothic-Heavy, Franklin Gothic Heavy;font-weight:800;}.cls-4{letter-spacing:-0.02em;}.cls-5{font-size:50px;fill:#e30613;}.cls-6{letter-spacing:-0.02em;}</style></defs><g id="Capa_2" data-name="Capa 2"><g id="Capa_1-2" data-name="Capa 1"><g id="negro"><path class="cls-1" d="M87.45.31C39.33.31.31,38.87.31,86.43s39,86.12,87.14,86.12S174.59,134,174.59,86.43,135.57.31,87.45.31Zm38.82,26.44a23.87,23.87,0,1,1-24.15,23.87A24,24,0,0,1,126.27,26.75ZM52.08,149.1a23.88,23.88,0,1,1,24.15-23.87A24,24,0,0,1,52.08,149.1Zm0-74.61A23.87,23.87,0,1,1,76.23,50.62,24,24,0,0,1,52.08,74.49ZM87.45,94.32a7.89,7.89,0,1,1,8-7.89A7.93,7.93,0,0,1,87.45,94.32Zm38.82,54.78a23.88,23.88,0,1,1,24.16-23.87A24,24,0,0,1,126.27,149.1Z"/><path class="cls-2" d="M353.54,141.23c1.35,6.1-136,68.54-280.8,31.51-41.21-10.54-19.84-20.32,55.77-13.59C264.9,171.28,352.46,136.39,353.54,141.23Z"/><text class="cls-3" transform="translate(182.19 127.43)"><tspan class="cls-4">D</tspan><tspan x="98.58" y="0">AN</tspan></text><text class="cls-5" transform="translate(353.55 175.33)">M<tspan class="cls-6" x="42.04" y="0">O</tspan><tspan x="75.54" y="0">VIES</tspan></text></g></g></g></svg>