<svg xmlns="http://www.w3.org/2000/svg" viewBox="0 0 536.22 190.35"><defs><style>.cls-1,.cls-2{fill:#fff;}.cls-2{font-size:150px;}.cls-2,.cls-4{font-family:FranklinGothic-Heavy, Franklin Gothic Heavy;font-weight:800;}.cls-3{letter-spacing:-0.02em;}.cls-4{font-size:50px;fill:#e30613;}.cls-5{letter-spacing:-0.02em;}</style></defs><g id="Capa_2" data-name="Capa 2"><g id="Capa_1-2" data-name="Capa 1"><g id="blanco"><path class="cls-1" d="M353.22,140.92c1.36,6.09-136,68.54-280.8,31.51-41.2-10.54-19.84-20.32,55.78-13.6C264.59,171,352.15,136.08,353.22,140.92Z"/><text class="cls-2" transform="translate(181.87 127.12)"><tspan class="cls-3">D</tspan><tspan x="98.58" y="0">AN</tspan></text><path class="cls-1" d="M87.14,0C39,0,0,38.56,0,86.12s39,86.12,87.14,86.12,87.13-38.56,87.13-86.12S135.26,0,87.14,0ZM126,26.43A23.88,23.88,0,1,1,101.8,50.31,24,24,0,0,1,126,26.43ZM51.76,148.79a23.88,23.88,0,1,1,24.16-23.87A24,24,0,0,1,51.76,148.79Zm0-74.61A23.88,23.88,0,1,1,75.92,50.31,24,24,0,0,1,51.76,74.18ZM87.14,94a7.89,7.89,0,1,1,8-7.89A7.94,7.94,0,0,1,87.14,94ZM126,148.79a23.88,23.88,0,1,1,24.16-23.87A24,24,0,0,1,126,148.79Z"/><text class="cls-4" transform="translate(353.23 175.01)">M<tspan class="cls-5" x="42.04" y="0">O</tspan><tspan x="75.54" y="0">VIES</tspan></text></g></g></g></svg>